<svg width="200" height="200" viewBox="0 0 200 200" fill="none" xmlns="http://www.w3.org/2000/svg">
<g clip-path="url(#clip0)">
<rect width="200" height="200" fill="black"/>
<path d="M-11.0498 168.486C-10.7301 166.753 -8.34956 165.227 -7.14154 164.526C-2.27392 161.762 5.72034 162.175 9.73523 166.671C11.192 168.28 11.5828 170.631 8.9891 169.063C6.99942 167.867 4.76103 167.166 2.48711 167.166C0.461893 167.166 -1.70544 167.042 -3.73065 167.207C-5.61374 167.372 -7.46131 168.032 -9.16675 169.063C-10.055 169.641 -11.3696 170.177 -11.0498 168.486ZM-38.479 289.3C-40.0424 289.3 -41.3214 290.785 -41.3214 292.6C-41.3214 294.415 -40.0424 295.9 -38.479 295.9C-36.9157 295.9 -35.6366 294.415 -35.6366 292.6C-35.6366 290.785 -36.9157 289.3 -38.479 289.3ZM-42.7782 286.206C-43.5598 286.206 -44.2349 286.949 -44.2349 287.897C-44.2349 288.805 -43.5954 289.589 -42.7782 289.589C-41.9965 289.589 -41.3214 288.846 -41.3214 287.897C-41.3214 286.949 -41.961 286.206 -42.7782 286.206ZM38.408 289.3C36.8447 289.3 35.5656 290.785 35.5656 292.6C35.5656 294.415 36.8447 295.9 38.408 295.9C39.9713 295.9 41.2504 294.415 41.2504 292.6C41.2504 290.785 39.9713 289.3 38.408 289.3ZM42.7071 286.206C41.9254 286.206 41.2504 286.949 41.2504 287.897C41.2504 288.805 41.8899 289.589 42.7071 289.589C43.4888 289.589 44.1638 288.846 44.1638 287.897C44.1283 286.949 43.4888 286.206 42.7071 286.206ZM105.666 232.419C98.4182 254.776 81.9323 258.9 82.252 270.697C82.5718 282.494 73.1563 313.1 49.2802 313.471C25.404 313.842 25.5461 314.543 18.7599 304.52C12.4355 295.157 5.96905 291.899 2.59786e-06 291.775C-5.96904 291.857 -12.4355 295.157 -18.7599 304.52C-25.5461 314.543 -25.404 313.842 -49.2802 313.471C-73.1564 313.1 -82.5718 282.494 -82.252 270.697C-81.9323 258.9 -98.4537 254.776 -105.666 232.419C-112.914 210.063 -88.2566 196.08 -88.2566 196.08L-89.7844 193.564V182.097C-98.5603 172.61 -89.7844 164.567 -89.7844 164.567C-90.2463 151.162 -82.9982 149.182 -82.9982 149.182C-89.0027 140.231 -80.5466 136.478 -80.5466 136.478L-79.6228 114.121C-74.6131 56.4161 -7.31919 59.7159 -0.0355296 60.2108C7.24813 59.6746 74.542 56.4161 79.6228 114.121L80.5466 136.478C80.5466 136.478 89.0383 140.231 82.9982 149.182C82.9982 149.182 90.2463 151.162 89.7844 164.567C89.7844 164.567 98.5603 172.61 89.7844 182.097V193.564L88.2566 196.08C88.2566 196.122 112.914 210.063 105.666 232.419ZM78.8056 156.689C78.8056 156.689 80.5466 191.873 80.5466 192.781L84.3483 190.759C84.3483 190.759 85.6274 168.197 83.7799 161.762C81.9323 155.328 78.8056 156.689 78.8056 156.689ZM-72.801 128.971L-72.1615 137.921H72.0905L73.0853 124.021C74.0091 111.482 70.5627 98.9011 63.279 89.5791C62.4973 88.5892 61.7157 87.6405 60.863 86.6918C55.9598 81.2883 50.1329 77.1223 43.8796 74.1525C35.1392 69.9453 25.7237 67.9654 16.3083 67.1817C10.2327 66.6867 4.12149 66.8517 -1.95415 66.8104C-8.31403 66.7692 -14.6739 66.8517 -20.9983 67.6354C-29.6321 68.7078 -38.2303 70.9765 -46.1535 75.1837C-63.9185 84.6294 -74.4354 106.326 -72.801 128.971ZM50.3816 172.239L56.2796 171.703C63.1014 167.125 63.4567 151.162 63.4567 151.162H59.4062C61.7157 156.936 50.3816 172.239 50.3816 172.239ZM-59.4773 151.203H-63.5277C-63.5277 151.203 -63.1724 167.166 -56.3506 171.744L-50.4527 172.281C-50.4527 172.239 -61.7867 156.936 -59.4773 151.203ZM-77.8463 212.208L-61.5025 241.04C-61.5025 241.04 -54.1122 248.011 -30.3782 223.51C-28.5661 221.654 -26.7541 219.839 -24.9421 218.024C-21.3891 214.518 -17.7295 211.094 -13.9633 207.877C-12.4 206.557 -10.8011 205.237 -9.16675 204C-8.88251 203.794 -8.56274 203.546 -8.2785 203.34C-7.63896 202.845 -6.99942 202.35 -6.32435 201.855C-5.68481 201.36 -5.00974 200.906 -4.33467 200.494C-3.6596 200.081 -2.949 199.71 -2.2384 199.421C-1.8831 199.298 -1.49226 199.174 -1.13696 199.05C-0.0710618 198.761 0.994837 199.091 2.02521 199.504C2.80687 199.793 3.58853 200.164 4.33466 200.659C5.93351 201.649 7.4613 202.762 8.95357 203.917C12.0091 206.269 14.9581 208.785 17.8361 211.424C22.0997 215.302 26.2212 219.385 30.2716 223.551C54.0057 248.052 61.3959 241.081 61.3959 241.081L77.7397 212.249L74.0446 183.624L72.6589 184.696C72.6589 184.696 72.3392 197.565 72.0549 198.308C71.7352 199.009 65.7306 212.786 65.1266 212.084C64.5226 211.383 51.7317 198.143 51.7317 198.143C51.7317 198.143 39.5094 197.277 27.6068 179.87C27.216 179.293 27.4647 178.385 28.0687 178.22C28.3174 178.138 28.5662 178.179 28.7793 178.344C31.8349 180.571 55.4269 197.4 61.8933 192.079C68.8217 186.346 72.8366 173.477 72.8366 173.477V149.677H68.8217C68.8217 149.677 70.3495 170.796 58.9443 176.694C47.5392 182.592 23.9472 163.619 11.1564 152.523H-11.2986C-24.0894 163.619 -47.6813 182.592 -59.0865 176.694C-70.4916 170.796 -68.9638 149.677 -68.9638 149.677H-72.9787V173.477C-72.9787 173.477 -68.9638 186.346 -62.0354 192.079C-55.569 197.442 -31.977 180.613 -28.9214 178.344C-28.7083 178.179 -28.4596 178.138 -28.2108 178.22C-27.5713 178.426 -27.3226 179.293 -27.749 179.87C-39.6515 197.277 -51.8739 198.143 -51.8739 198.143C-51.8739 198.143 -64.6647 211.383 -65.2687 212.084C-65.8727 212.786 -71.9128 199.009 -72.197 198.308C-72.5168 197.607 -72.801 184.696 -72.801 184.696L-74.1867 183.624L-77.8463 212.208ZM-84.4549 190.759L-80.6532 192.781C-80.6532 191.832 -78.9122 156.689 -78.9122 156.689C-78.9122 156.689 -82.0389 155.328 -83.8864 161.804C-85.6985 168.238 -84.4549 190.759 -84.4549 190.759ZM-77.8463 254.281L-66.5122 244.629C-66.5122 244.629 -82.0033 218.725 -82.0033 218.189C-82.0033 217.653 -83.1758 200.741 -83.1758 200.741C-83.1758 200.741 -100.301 205.98 -100.159 225.985C-100.053 245.99 -84.7747 254.982 -84.4194 254.693C-84.0996 254.404 -77.8463 254.281 -77.8463 254.281ZM-31.0177 291.857C-31.0177 286.206 -38.5856 276.307 -45.6561 276.307C-52.7266 276.307 -56.7059 282.618 -53.7925 289.712C-51.7317 294.827 -48.0721 300.973 -41.0017 300.973C-33.9312 300.973 -31.0177 297.467 -31.0177 291.857ZM45.585 276.266C38.5146 276.266 30.9467 286.206 30.9467 291.816C30.9467 297.467 33.8957 300.932 40.9306 300.932C47.9655 300.932 51.6251 294.745 53.7214 289.671C56.6349 282.577 52.62 276.266 45.585 276.266ZM61.4314 249.62C61.4314 249.62 37.2355 242.979 26.5765 232.419C16.1306 222.066 6.00458 218.767 -0.0710618 218.478C-6.11117 218.767 -16.2728 222.066 -26.7186 232.419C-37.3421 242.979 -61.5736 249.62 -61.5736 249.62C-91.632 265.706 -62.8171 298.457 -62.8171 298.457C-65.2687 292.187 -63.279 282.535 -63.279 282.535C-49.8842 254.239 -17.1965 284.68 -17.1965 284.68H-15.2069V261.87C-15.2069 261.045 -14.6028 260.344 -13.8922 260.344H-9.87735C-9.16675 260.344 -8.56274 259.643 -8.56274 258.818C-8.56274 257.993 -7.95872 257.292 -7.24812 257.292H-5.93352C-4.47679 257.292 -3.3043 255.931 -3.3043 254.239H3.09111C3.09111 255.931 4.26361 257.292 5.72034 257.292H7.03495C7.74555 257.292 8.34956 257.993 8.34956 258.818C8.34956 259.643 8.95357 260.344 9.66417 260.344H13.6791C14.3897 260.344 14.9937 261.045 14.9937 261.87V284.68H16.9834C16.9834 284.68 49.671 254.239 63.0658 282.535C63.0658 282.535 65.0555 292.187 62.6039 298.457C62.675 298.457 91.4899 265.706 61.4314 249.62ZM100.088 225.944C100.195 205.939 83.1048 200.7 83.1048 200.7C83.1048 200.7 81.9323 217.612 81.9323 218.148C81.9323 218.684 66.4412 244.588 66.4412 244.588L77.7753 254.239C77.7753 254.239 84.0286 254.363 84.3483 254.652C84.7036 254.941 99.9815 245.949 100.088 225.944Z" fill="#AEAEAE"/>
<path d="M28.23 23H33.09C34.73 23 35.96 23.44 36.78 24.32C37.6 25.2 38.01 26.49 38.01 28.19V30.26C38.01 31.96 37.6 33.25 36.78 34.13C35.96 35.01 34.73 35.45 33.09 35.45H31.53V44H28.23V23ZM33.09 32.45C33.63 32.45 34.03 32.3 34.29 32C34.57 31.7 34.71 31.19 34.71 30.47V27.98C34.71 27.26 34.57 26.75 34.29 26.45C34.03 26.15 33.63 26 33.09 26H31.53V32.45H33.09ZM39.3523 23H44.2423C45.9423 23 47.1823 23.4 47.9623 24.2C48.7423 24.98 49.1323 26.19 49.1323 27.83V29.12C49.1323 31.3 48.4123 32.68 46.9723 33.26V33.32C47.7723 33.56 48.3323 34.05 48.6523 34.79C48.9923 35.53 49.1623 36.52 49.1623 37.76V41.45C49.1623 42.05 49.1823 42.54 49.2223 42.92C49.2623 43.28 49.3623 43.64 49.5223 44H46.1623C46.0423 43.66 45.9623 43.34 45.9223 43.04C45.8823 42.74 45.8623 42.2 45.8623 41.42V37.58C45.8623 36.62 45.7023 35.95 45.3823 35.57C45.0823 35.19 44.5523 35 43.7923 35H42.6523V44H39.3523V23ZM43.8523 32C44.5123 32 45.0023 31.83 45.3223 31.49C45.6623 31.15 45.8323 30.58 45.8323 29.78V28.16C45.8323 27.4 45.6923 26.85 45.4123 26.51C45.1523 26.17 44.7323 26 44.1523 26H42.6523V32H43.8523ZM55.7719 44.3C54.1519 44.3 52.9119 43.84 52.0519 42.92C51.1919 42 50.7619 40.7 50.7619 39.02V27.98C50.7619 26.3 51.1919 25 52.0519 24.08C52.9119 23.16 54.1519 22.7 55.7719 22.7C57.3919 22.7 58.6319 23.16 59.4919 24.08C60.3519 25 60.7819 26.3 60.7819 27.98V39.02C60.7819 40.7 60.3519 42 59.4919 42.92C58.6319 43.84 57.3919 44.3 55.7719 44.3ZM55.7719 41.3C56.9119 41.3 57.4819 40.61 57.4819 39.23V27.77C57.4819 26.39 56.9119 25.7 55.7719 25.7C54.6319 25.7 54.0619 26.39 54.0619 27.77V39.23C54.0619 40.61 54.6319 41.3 55.7719 41.3ZM63.3436 44.12C62.7436 44.12 62.2336 44.08 61.8136 44V41C62.1336 41.08 62.4936 41.12 62.8936 41.12C63.5536 41.12 64.0436 40.96 64.3636 40.64C64.6836 40.3 64.8436 39.79 64.8436 39.11V23H68.1436V39.02C68.1436 40.74 67.7436 42.02 66.9436 42.86C66.1636 43.7 64.9636 44.12 63.3436 44.12ZM70.053 23H79.053V26H73.353V31.55H77.883V34.55H73.353V41H79.053V44H70.053V23ZM85.1515 44.3C83.5715 44.3 82.3615 43.85 81.5215 42.95C80.7015 42.05 80.2915 40.78 80.2915 39.14V27.86C80.2915 26.22 80.7015 24.95 81.5215 24.05C82.3615 23.15 83.5715 22.7 85.1515 22.7C86.7315 22.7 87.9315 23.15 88.7515 24.05C89.5915 24.95 90.0115 26.22 90.0115 27.86V30.08H86.8915V27.65C86.8915 26.35 86.3415 25.7 85.2415 25.7C84.1415 25.7 83.5915 26.35 83.5915 27.65V39.38C83.5915 40.66 84.1415 41.3 85.2415 41.3C86.3415 41.3 86.8915 40.66 86.8915 39.38V36.17H90.0115V39.14C90.0115 40.78 89.5915 42.05 88.7515 42.95C87.9315 43.85 86.7315 44.3 85.1515 44.3ZM94.1159 26H90.6659V23H100.866V26H97.4159V44H94.1159V26ZM111.018 44.3C109.438 44.3 108.228 43.85 107.388 42.95C106.568 42.05 106.158 40.78 106.158 39.14V27.86C106.158 26.22 106.568 24.95 107.388 24.05C108.228 23.15 109.438 22.7 111.018 22.7C112.598 22.7 113.798 23.15 114.618 24.05C115.458 24.95 115.878 26.22 115.878 27.86V30.08H112.758V27.65C112.758 26.35 112.208 25.7 111.108 25.7C110.008 25.7 109.458 26.35 109.458 27.65V39.38C109.458 40.66 110.008 41.3 111.108 41.3C112.208 41.3 112.758 40.66 112.758 39.38V36.17H115.878V39.14C115.878 40.78 115.458 42.05 114.618 42.95C113.798 43.85 112.598 44.3 111.018 44.3ZM117.403 23H120.703V41H126.133V44H117.403V23ZM131.918 44.3C130.298 44.3 129.058 43.84 128.198 42.92C127.338 42 126.908 40.7 126.908 39.02V27.98C126.908 26.3 127.338 25 128.198 24.08C129.058 23.16 130.298 22.7 131.918 22.7C133.538 22.7 134.778 23.16 135.638 24.08C136.498 25 136.928 26.3 136.928 27.98V39.02C136.928 40.7 136.498 42 135.638 42.92C134.778 43.84 133.538 44.3 131.918 44.3ZM131.918 41.3C133.058 41.3 133.628 40.61 133.628 39.23V27.77C133.628 26.39 133.058 25.7 131.918 25.7C130.778 25.7 130.208 26.39 130.208 27.77V39.23C130.208 40.61 130.778 41.3 131.918 41.3ZM138.71 23H142.85L146.06 35.57H146.12V23H149.06V44H145.67L141.71 28.67H141.65V44H138.71V23ZM151.062 23H160.062V26H154.362V31.55H158.892V34.55H154.362V41H160.062V44H151.062V23ZM165.859 44.3C164.259 44.3 163.049 43.85 162.229 42.95C161.409 42.03 160.999 40.72 160.999 39.02V37.82H164.119V39.26C164.119 40.62 164.689 41.3 165.829 41.3C166.389 41.3 166.809 41.14 167.089 40.82C167.389 40.48 167.539 39.94 167.539 39.2C167.539 38.32 167.339 37.55 166.939 36.89C166.539 36.21 165.799 35.4 164.719 34.46C163.359 33.26 162.409 32.18 161.869 31.22C161.329 30.24 161.059 29.14 161.059 27.92C161.059 26.26 161.479 24.98 162.319 24.08C163.159 23.16 164.379 22.7 165.979 22.7C167.559 22.7 168.749 23.16 169.549 24.08C170.369 24.98 170.779 26.28 170.779 27.98V28.85H167.659V27.77C167.659 27.05 167.519 26.53 167.239 26.21C166.959 25.87 166.549 25.7 166.009 25.7C164.909 25.7 164.359 26.37 164.359 27.71C164.359 28.47 164.559 29.18 164.959 29.84C165.379 30.5 166.129 31.3 167.209 32.24C168.589 33.44 169.539 34.53 170.059 35.51C170.579 36.49 170.839 37.64 170.839 38.96C170.839 40.68 170.409 42 169.549 42.92C168.709 43.84 167.479 44.3 165.859 44.3Z" fill="#AEAEAE"/>
<path d="M100.373 72.2831C100.694 73.1553 101.138 73.9011 101.707 74.5204C102.275 75.1398 102.948 75.6138 103.726 75.9425C104.504 76.2712 105.35 76.4355 106.264 76.4355C107.154 76.4355 107.987 76.2648 108.766 75.9234C109.544 75.5821 110.223 75.1018 110.804 74.4825C111.384 73.8631 111.835 73.1237 112.156 72.2641C112.477 71.4045 112.638 70.4439 112.638 69.3821V53H116.529V79.545H112.675V77.08C111.81 78.0154 110.791 78.7359 109.618 79.2416C108.444 79.7472 107.178 80 105.82 80C104.436 80 103.146 79.7535 101.947 79.2605C100.749 78.7675 99.7117 78.0661 98.8348 77.1559C97.9578 76.2457 97.2661 75.1525 96.7597 73.8757C96.2532 72.5991 96 71.177 96 69.6095V53H99.8908V69.3821C99.8908 70.4439 100.051 71.4108 100.373 72.2831Z" fill="white"/>
<path d="M123.236 53V62.6699C124.1 61.7851 125.101 61.0836 126.237 60.5653C127.373 60.047 128.609 59.7879 129.943 59.7879C131.326 59.7879 132.623 60.0533 133.833 60.5842C135.044 61.1151 136.094 61.8356 136.983 62.7458C137.872 63.6559 138.577 64.7303 139.095 65.9691C139.614 67.2079 139.873 68.5225 139.873 69.913C139.873 71.3033 139.614 72.6116 139.095 73.8377C138.577 75.0639 137.872 76.132 136.983 77.042C136.094 77.9522 135.044 78.6727 133.833 79.2036C132.623 79.7345 131.326 79.9999 129.943 79.9999C128.609 79.9999 127.367 79.7408 126.219 79.2225C125.07 78.7043 124.063 78.0027 123.198 77.1179V79.5449H119.493V53H123.236ZM123.662 72.5295C123.995 73.3385 124.458 74.0464 125.051 74.6531C125.644 75.2599 126.336 75.7403 127.126 76.0942C127.917 76.4481 128.769 76.6251 129.683 76.6251C130.573 76.6251 131.412 76.4481 132.203 76.0942C132.993 75.7403 133.679 75.26 134.26 74.6531C134.84 74.0465 135.303 73.3385 135.649 72.5295C135.995 71.7205 136.168 70.8484 136.168 69.913C136.168 68.9775 135.995 68.099 135.649 67.2774C135.303 66.4557 134.84 65.7416 134.26 65.1348C133.679 64.5282 132.994 64.0541 132.203 63.7128C131.412 63.3716 130.573 63.2008 129.683 63.2008C128.794 63.2008 127.954 63.3715 127.163 63.7128C126.373 64.0542 125.681 64.5282 125.088 65.1348C124.496 65.7416 124.026 66.4557 123.68 67.2774C123.334 68.099 123.161 68.9775 123.161 69.913C123.161 70.8484 123.328 71.7205 123.662 72.5295Z" fill="white"/>
<path d="M141.985 66.0071C142.479 64.7936 143.159 63.7255 144.023 62.8027C144.888 61.88 145.913 61.1532 147.099 60.6223C148.285 60.0914 149.569 59.826 150.953 59.826C152.311 59.826 153.571 60.0788 154.732 60.5844C155.893 61.09 156.894 61.7916 157.734 62.6891C158.574 63.5865 159.228 64.6483 159.698 65.8744C160.167 67.1006 160.402 68.4341 160.402 69.8752V71.1266H145.024C145.147 71.9103 145.394 72.6371 145.765 73.307C146.136 73.9769 146.599 74.5584 147.154 75.0514C147.71 75.5444 148.34 75.93 149.044 76.208C149.748 76.486 150.496 76.6252 151.286 76.6252C153.534 76.6252 155.35 75.6771 156.733 73.781L159.438 75.8287C158.5 77.1181 157.339 78.1293 155.955 78.8624C154.572 79.5956 153.016 79.9622 151.286 79.9622C149.878 79.9622 148.563 79.7092 147.34 79.2037C146.117 78.6981 145.055 77.9902 144.153 77.08C143.251 76.1699 142.541 75.1018 142.022 73.8757C141.504 72.6496 141.244 71.316 141.244 69.875C141.244 68.5099 141.491 67.2206 141.985 66.0071ZM147.192 64.5091C146.142 65.4066 145.444 66.6011 145.098 68.0927H156.622C156.301 66.6011 155.616 65.4066 154.566 64.5091C153.516 63.6117 152.287 63.163 150.879 63.163C149.47 63.163 148.241 63.6117 147.192 64.5091Z" fill="white"/>
<path d="M167.405 64.9452C166.615 65.83 166.219 67.0308 166.219 68.5477V79.545H162.477V60.2051H166.182V62.5941C166.652 61.8104 167.263 61.191 168.016 60.736C168.77 60.2808 169.665 60.0533 170.703 60.0533H172V63.6179H170.444C169.208 63.618 168.196 64.0604 167.405 64.9452Z" fill="white"/>
</g>
<defs>
<clipPath id="clip0">
<rect width="200" height="200" fill="white"/>
</clipPath>
</defs>
</svg>
